<?xml version="1.0" encoding="UTF-8" standalone="no"?>
<!-- Created with Inkscape (http://www.inkscape.org/) -->

<svg
   width="1000"
   height="1000"
   viewBox="0 0 264.58333 264.58333"
   version="1.1"
   id="svg1"
   inkscape:version="1.4.2 (ebf0e94, 2025-05-08)"
   sodipodi:docname="favicon.svg"
   xmlns:inkscape="http://www.inkscape.org/namespaces/inkscape"
   xmlns:sodipodi="http://sodipodi.sourceforge.net/DTD/sodipodi-0.dtd"
   xmlns="http://www.w3.org/2000/svg"
   xmlns:svg="http://www.w3.org/2000/svg">
  <sodipodi:namedview
     id="namedview1"
     pagecolor="#ffffff"
     bordercolor="#000000"
     borderopacity="0.25"
     inkscape:showpageshadow="2"
     inkscape:pageopacity="0.0"
     inkscape:pagecheckerboard="0"
     inkscape:deskcolor="#d1d1d1"
     inkscape:document-units="mm"
     inkscape:zoom="0.7483165"
     inkscape:cx="414.93138"
     inkscape:cy="475.73453"
     inkscape:window-width="1920"
     inkscape:window-height="1043"
     inkscape:window-x="0"
     inkscape:window-y="0"
     inkscape:window-maximized="1"
     inkscape:current-layer="layer1" />
  <defs
     id="defs1" />
  <g
     inkscape:label="Layer 1"
     inkscape:groupmode="layer"
     id="layer1">
    <g
       id="g1"
       transform="matrix(1.0072326,0,0,1.0054613,-16.669294,65.427826)">
      <path
         d="m 25.255557,60.570447 c 0.37,-3.67729 3.58634,-5.92418 7.12928,-4.49894 4.37493,1.76113 7.88066,6.5939 11.34401,9.7038 13.15372,11.80703 26.02839,23.93445 39.04155,35.897553 3.48505,3.20393 7.01456,6.36653 10.43657,9.63662 1.97094,1.88308 4.3956,3.87366 5.36712,6.50606 0.60668,1.64434 -0.20671,3.13573 -1.16066,4.46174 -1.94923,2.70888 -4.51652,4.79764 -6.99492,7.00009 -10.38283,9.22321 -20.74499,18.65727 -30.69064,28.3621 -6.03064,5.88491 -12.50363,11.27682 -18.46502,17.24442 -2.56108,2.56522 -4.92063,6.11953 -8.86354,6.38617 -2.94866,0.19948 -5.7981,-1.63608 -6.60322,-4.56819 -0.66042,-2.40295 -0.29972,-5.2338 -0.29972,-7.70186 0.001,-4.99504 0.003,-9.99009 0.007,-14.98512 0.0155,-21.18735 0.009,-42.37469 -0.0176,-63.562023 -0.007,-6.54534 0.0341,-13.09377 -0.0465,-19.63807 -0.0424,-3.38481 -0.52193,-6.87194 -0.18397,-10.24435 z"
         opacity="1"
         fill="#000000"
         fill-rule="evenodd"
         id="path46"
         style="stroke-width:1.03353" />
      <path
         d="m 39.127577,38.860147 c 0.42685,-2.685107 3.06131,-4.510318 4.9475,-6.239405 4.20646,-3.857127 8.48114,-7.641909 12.67106,-11.518682 1.47588,-1.367359 4.98575,-4.624005 7.17993,-2.877336 2.97346,2.367814 2.01745,6.302453 2.01124,9.694489 -0.0124,6.371706 -0.0341,12.743414 -0.0517,19.115114 -0.008,2.95486 0.59738,6.5505 -0.14469,9.41958 -0.77308,2.98587 -4.57337,3.55948 -6.91431,2.18592 -2.64066,-1.54927 -4.72219,-4.007 -6.98769,-6.02961 -2.95589,-2.63757 -6.09161,-5.08083 -9.03304,-7.73596 -1.68362,-1.52032 -4.08347,-3.46646 -3.67833,-6.01411 z"
         opacity="1"
         fill="#000000"
         fill-rule="evenodd"
         id="path47"
         style="stroke-width:1.03353" />
      <path
         d="m 47.910507,190.2597 c 0.5674,-2.43913 2.72748,-4.19097 4.49275,-5.80017 3.65559,-3.32796 7.26364,-6.74893 11.01431,-9.96734 12.20701,-10.47585 24.47396,-21.36304 35.87999,-32.70706 2.854603,-2.8391 5.888013,-5.43015 8.913153,-8.08219 3.46439,-3.03547 5.57279,-5.4622 10.39006,-5.80326 2.16421,-0.15296 5.21932,-0.3328 7.23056,0.59428 7.28846,3.36311 11.67475,13.68495 20.37189,13.75937 6.62388,0.0579 11.53418,-4.5279 16.0693,-8.8067 1.95131,-1.84175 3.6804,-3.78582 6.21255,-4.85759 2.97243,-1.25781 7.35975,-1.47381 10.36525,-0.18087 2.18179,0.93845 4.06591,3.03031 5.79499,4.60954 3.31763,3.03031 6.62286,6.09679 9.97769,9.08266 13.34286,11.87524 26.92446,23.62853 39.89525,35.90891 2.57762,2.44119 5.19554,4.84105 7.7587,7.29774 1.94406,1.86243 3.60908,3.99873 2.82463,6.83577 -0.89194,3.22667 -4.23127,3.56773 -7.01973,3.58738 -6.86056,0.0496 -13.7232,-0.0424 -20.58479,-0.0155 -29.45453,0.11889 -58.91009,0.032 -88.36567,-0.004 -21.0168,-0.0259 -42.032583,-0.15193 -63.049383,-0.0847 -4.72426,0.0155 -10.21747,0.87023 -14.85904,-0.0734 -2.22932,-0.45372 -3.81993,-3.10988 -3.31246,-5.29373 z"
         opacity="1"
         fill="#000000"
         fill-rule="evenodd"
         id="path48"
         style="stroke-width:1.03353" />
      <path
         d="m 81.464007,-27.795217 c 0.63356,-5.291667 6.31176,-9.248012 11.46287,-6.945304 2.70372,1.20819 4.96818,3.95221 7.0528,5.994458 3.970823,3.887104 8.013993,7.678095 12.120193,11.420495 3.21635,2.93005 6.04305,5.53971 5.29477,10.262945 -0.79994,5.047747 -6.94634,8.190709 -11.56829,5.97896 -3.05303,-1.459337 -5.3392,-4.481376 -7.697713,-6.828527 -4.09382,-4.075207 -8.40053,-7.92096 -12.50777,-11.977565 -2.31511,-2.286155 -4.57647,-4.39973 -4.15686,-7.905462 z"
         opacity="1"
         fill="#f08250"
         fill-rule="evenodd"
         id="path49"
         style="stroke-width:1.03353" />
      <path
         d="m 85.139237,26.45471 c 1.27538,-6.810956 7.29878,-7.283275 13.01213,-7.232635 4.816253,0.04135 9.633523,0.05681 14.450803,0.08989 25.31835,0.172605 50.64394,0.124027 75.96333,0.09301 1.54925,-0.0024 3.09955,-0.0096 4.64983,-0.01079 6.01515,-0.0072 15.94115,-1.143072 16.97882,7.189235 0.13953,1.121378 0.0796,2.288229 -0.11674,3.398233 -0.53951,3.065451 -2.74196,5.513881 -5.81567,6.169136 -2.57245,0.547769 -5.34335,0.335898 -7.95714,0.366905 -4.47724,0.05166 -8.95448,0.04339 -13.43174,0.06724 -25.32455,0.131255 -50.63877,0.05885 -75.96642,-0.07755 -6.90087,-0.0362 -19.765203,2.293403 -21.587313,-6.965979 -0.19844,-1.007694 -0.37208,-2.06085 -0.17984,-3.087145 z"
         opacity="1"
         fill="#f27955"
         fill-rule="evenodd"
         id="path50"
         style="stroke-width:1.03353" />
      <path
         d="m 106.22529,60.003047 c 1.95544,-5.6379 8.37159,-6.90811 12.87984,-3.35483 6.48333,5.11079 12.1233,11.60136 18.06711,17.32504 1.63816,1.57819 3.30936,3.10368 5.04052,4.57956 0.71005,0.60565 1.43662,1.38803 2.39055,1.51515 7.21507,-4.86171 13.30979,-12.12433 19.45929,-18.22731 3.07268,-3.05097 6.32622,-7.01145 10.9709,-7.32048 5.70199,-0.37931 11.52178,5.89007 8.15351,11.40809 -1.86242,3.04994 -5.03845,5.34851 -7.55406,7.83207 -5.50767,5.43637 -11.22309,10.63708 -16.75144,16.05071 -3.0365,2.97346 -6.54119,7.46725 -10.74662,8.76535 -4.86793,1.502753 -9.29867,-1.61334 -12.66486,-4.7346 -8.02122,-7.43932 -16.20057,-14.81253 -24.07192,-22.39656 -3.27008,-3.15123 -6.26938,-6.64042 -5.17282,-11.44219 z"
         opacity="1"
         fill="#f5755b"
         fill-rule="evenodd"
         id="path51"
         style="stroke-width:1.03353" />
      <path
         d="m 139.9235,-33.110651 c 0.18294,-5.465303 0.1292,-10.939895 0.0785,-16.414499 -0.0258,-2.849445 -0.33693,-6.336564 0.95084,-8.961734 3.29284,-6.7138 12.21735,-5.41259 15.31587,0.751381 1.34358,2.673736 0.5271,7.088976 0.5209,10.027295 -0.0134,7.702893 0.32246,15.555642 -0.19637,23.241995 -0.42995,6.370663 -9.91981,8.530742 -14.25443,4.636411 -3.47059,-3.117122 -2.55488,-9.104364 -2.41535,-13.280849 z"
         opacity="1"
         fill="#f37a52"
         fill-rule="evenodd"
         id="path52"
         style="stroke-width:1.03353" />
      <path
         d="m 179.11904,-10.745083 c 0.41857,-3.408589 2.91869,-5.781569 5.30821,-7.977808 3.90776,-3.590483 7.70495,-7.250207 11.49903,-10.962644 1.96991,-1.927533 4.20336,-4.473118 6.7107,-5.682339 5.92109,-2.857703 11.50938,3.799249 11.00606,9.28832 -0.31317,3.40238 -2.81223,5.771224 -5.21002,7.925095 -3.29593,2.962098 -6.59702,5.964493 -9.62525,9.205642 -2.57659,2.758486 -5.53042,6.237347 -9.10746,7.71012 -5.69371,2.345077 -11.23446,-4.194056 -10.58127,-9.506386 z"
         opacity="1"
         fill="#f4755b"
         fill-rule="evenodd"
         id="path53"
         style="stroke-width:1.03353" />
      <path
         d="m 194.63024,117.35252 c 0.93535,-2.54971 4.03282,-4.7315 6.06784,-6.37894 3.27319,-2.651 6.29006,-5.64927 9.46506,-8.41602 13.10411,-11.424633 25.50645,-23.675043 38.37389,-35.370453 3.81785,-3.47059 7.32461,-7.36286 11.55692,-10.34459 1.99884,-1.4087 4.62194,-2.23656 6.86262,-0.67696 2.85564,1.98747 2.55489,5.40018 2.52802,8.4336 -0.0568,6.71896 -0.0123,13.43896 -0.0197,20.15794 -0.0237,21.705133 0.0228,43.410273 -0.0413,65.114373 -0.0176,6.20116 -0.0237,12.40337 -0.0134,18.60558 0.005,2.80293 0.5736,6.11849 -0.5085,8.76638 -1.30742,3.20084 -5.62136,4.75734 -8.81186,3.4644 -3.12126,-1.26607 -5.71024,-4.5744 -8.10597,-6.83783 -14.2937,-13.50305 -29.18168,-26.37358 -43.52292,-39.81462 -3.77962,-3.54191 -7.98711,-6.67349 -11.60136,-10.38387 -1.66295,-1.70739 -3.15124,-3.80649 -2.22932,-6.31899 z"
         opacity="1"
         fill="#000000"
         fill-rule="evenodd"
         id="path54"
         style="stroke-width:1.03353" />
      <path
         d="m 228.23543,20.740333 c 1.03249,-3.550175 4.68291,-3.716571 7.36698,-1.921336 2.25826,1.509989 4.14549,3.74137 6.08129,5.629626 3.28352,3.203945 6.61665,6.359313 10.00455,9.453686 1.74356,1.592677 4.45141,4.052468 3.60289,6.699338 -0.90434,2.81947 -4.40284,4.61781 -6.49263,6.45748 -4.52169,3.98322 -8.6434,8.87802 -13.7449,12.1574 -2.18591,1.40456 -4.52168,1.23197 -6.27972,-0.73793 -1.71772,-1.92547 -0.76378,-6.95359 -0.76171,-9.36688 0.004,-6.37481 -0.0568,-12.748574 -0.0702,-19.123372 -0.005,-2.915583 -0.5302,-6.416149 0.29352,-9.248012 z"
         opacity="1"
         fill="#000000"
         fill-rule="evenodd"
         id="path55"
         style="stroke-width:1.03353" />
    </g>
  </g>
</svg>
