<?xml version="1.0" encoding="UTF-8" standalone="no"?>
<!-- Generator: Adobe Illustrator 25.2.0, SVG Export Plug-In . SVG Version: 6.00 Build 0)  -->

<svg
   version="1.1"
   id="Layer_1"
   x="0px"
   y="0px"
   viewBox="0 0 1000 1000"
   style="enable-background:new 0 0 1000 1000;"
   xml:space="preserve"
   sodipodi:docname="Linkedin.svg"
   inkscape:export-filename="Linkedin.svg"
   inkscape:export-xdpi="96"
   inkscape:export-ydpi="96"
   inkscape:version="1.4.2 (ebf0e94, 2025-05-08)"
   xmlns:inkscape="http://www.inkscape.org/namespaces/inkscape"
   xmlns:sodipodi="http://sodipodi.sourceforge.net/DTD/sodipodi-0.dtd"
   xmlns="http://www.w3.org/2000/svg"
   xmlns:svg="http://www.w3.org/2000/svg"><defs
   id="defs94" /><sodipodi:namedview
   id="namedview94"
   pagecolor="#ffffff"
   bordercolor="#000000"
   borderopacity="0.25"
   inkscape:showpageshadow="2"
   inkscape:pageopacity="0.0"
   inkscape:pagecheckerboard="0"
   inkscape:deskcolor="#d1d1d1"
   inkscape:zoom="0.84"
   inkscape:cx="499.40476"
   inkscape:cy="500"
   inkscape:window-width="1920"
   inkscape:window-height="1043"
   inkscape:window-x="0"
   inkscape:window-y="0"
   inkscape:window-maximized="1"
   inkscape:current-layer="Layer_1" />

<g
   id="g92">
</g>


<g
   id="g94"
   transform="matrix(1.9833353,0,0,1.9833353,-491.07881,-491.07193)"><path
     style="fill:#020202"
     d="m 713.006,250 h -426.12 c -20.345,0 -36.879,16.14 -36.879,36.051 V 713.92 c 0,19.911 16.534,36.079 36.879,36.079 h 426.12 c 20.386,0 36.987,-16.168 36.987,-36.079 V 286.051 C 749.993,266.14 733.392,250 713.006,250 Z"
     id="path92" /><path
     style="fill:#ffffff"
     d="m 324.09,437.446 h 74.232 V 676.053 H 324.09 Z m 37.137,-118.612 c 23.722,0 42.982,19.267 42.982,43.003 0,23.743 -19.259,43.009 -42.982,43.009 -23.817,0 -43.023,-19.266 -43.023,-43.009 0,-23.736 19.205,-43.003 43.023,-43.003"
     id="path93" /><path
     style="fill:#ffffff"
     d="m 444.844,437.446 h 71.086 v 32.619 h 1.017 c 9.888,-18.758 34.085,-38.54 70.164,-38.54 75.086,0 88.963,49.406 88.963,113.668 v 130.86 H 601.923 V 560.018 c 0,-27.669 -0.475,-63.267 -38.533,-63.267 -38.588,0 -44.475,30.158 -44.475,61.286 V 676.052 H 444.846 V 437.446 Z"
     id="path94" /></g>
</svg>
