<?xml version="1.0" encoding="UTF-8" standalone="no"?>
<!-- Created with Inkscape (http://www.inkscape.org/) -->

<svg
   width="198.40167mm"
   height="48.524048mm"
   viewBox="0 0 198.40167 48.524048"
   version="1.1"
   id="svg1"
   xmlns="http://www.w3.org/2000/svg"
   xmlns:svg="http://www.w3.org/2000/svg">
  <defs
     id="defs1" />
  <g
     id="layer1"
     transform="translate(-5.7687434,-8.6804563)">
    <path
       d="m 65.148963,21.466985 c 0.395347,-0.0063 0.790695,-0.01445 1.186042,-0.02167 0.119905,-0.767582 -0.05803,-1.57802 0.05971,-2.342952 0.635397,0.01878 1.331709,-0.121108 1.958679,-9.62e-4 -0.05827,0.764691 0.02335,1.539496 -0.026,2.303224 0.600967,0.204656 1.366862,-0.156742 1.975774,0.06477 -0.0048,0.550404 -0.02143,1.107069 2.66e-4,1.657232 -0.520067,-0.01613 -1.479544,-0.15626 -1.954827,0.05417 -0.01493,1.046877 -0.03491,2.101699 0.0014,3.148093 0.01758,0.508029 0.0756,0.993906 0.615173,1.204341 0.503694,0.196711 0.986683,-0.127127 1.477858,-0.08716 -0.02986,0.532346 0.09462,1.101291 0.0089,1.629303 -0.378012,0.203212 -0.993184,0.170948 -1.416943,0.179375 -0.38379,0.0075 -0.783471,-2.65e-4 -1.157871,-0.09462 -1.950734,-0.492379 -1.542144,-3.082121 -1.503621,-4.609338 0.0089,-0.346711 0.158668,-1.082269 -0.0096,-1.383475 -0.404015,-0.03925 -0.811642,-0.04502 -1.216861,-0.02336 -0.20875,-0.399199 -0.06381,-1.168947 -0.09655,-1.619432 0.03275,-0.01926 0.06573,-0.03852 0.09848,-0.05754 z"
       opacity="1"
       fill="#010102"
       fill-rule="evenodd"
       id="path4"
       style="stroke-width:0.240772" />
    <path
       d="m 65.877538,33.178372 c 0.0034,-0.04695 0.0065,-0.09366 0.0096,-0.140611 0.443262,-0.276406 1.167022,-0.153613 1.678662,-0.159151 1.247439,-0.013 2.538458,0.07151 3.779156,-0.04599 0.07488,0.574241 0.0051,1.185802 0.0053,1.765339 2.66e-4,1.20386 0.0022,2.407961 0.0026,3.61182 0.0019,3.691756 0.0022,7.383512 -0.0031,11.075267 -0.0019,1.324005 -0.0012,2.648251 -0.0058,3.972254 -0.0012,0.308671 0.0099,0.619505 -0.0046,0.927697 -7.23e-4,0.01396 -0.0034,0.228733 -0.02552,0.238603 -1.8029,0.0072 -3.60893,-0.05995 -5.41183,-0.0055 -0.07801,-1.418627 0.0012,-2.864463 0.0036,-4.28887 0.0046,-2.728668 0.0014,-5.457095 0.0034,-8.185763 0.0014,-1.985165 0.0012,-3.97057 -0.0065,-5.955734 -0.0039,-0.926008 -0.107625,-1.887411 -0.02504,-2.809326 z"
       opacity="1"
       fill="#000001"
       fill-rule="evenodd"
       id="path5"
       style="stroke-width:0.240772" />
    <path
       d="m 71.758633,18.673068 c 0.150964,-0.109311 0.43965,-0.08548 0.628656,-0.08331 0.436279,0.0046 0.879058,0.01806 1.314133,9.62e-4 0.148556,0.214528 0.04695,0.700406 0.04478,0.957551 -0.0077,0.858592 0.15265,1.881391 -0.0378,2.719277 -0.01709,0.02721 0.270868,-0.26196 0.341174,-0.322393 0.263405,-0.227048 0.553053,-0.420629 0.887726,-0.528013 0.990536,-0.31806 2.279388,-0.192377 3.085492,0.507066 0.821032,0.712203 0.871835,1.864778 0.854018,2.8635 -0.0248,1.411887 -0.106662,2.865427 9.62e-4,4.273701 -0.06019,0.09872 -0.370307,0.0419 -0.479618,0.04334 -0.470709,0.0063 -0.947437,-0.013 -1.416942,0.01324 -0.112922,-1.205304 0.01276,-2.4578 -0.03154,-3.670087 -0.01734,-0.48058 0.07801,-1.046876 -0.140129,-1.493749 -0.573278,-1.174485 -2.351138,-1.046394 -2.889264,0.07801 -0.241494,0.505139 -0.165892,1.190135 -0.163243,1.735484 0.0058,1.121274 0.03925,2.24592 -0.0171,3.36551 -0.649843,-0.0065 -1.3163,-0.05177 -1.963013,0.01685 -0.181542,-0.924565 -9.62e-4,-2.034283 -0.01541,-2.979312 -0.03852,-2.499213 0.03467,-4.999629 -0.0029,-7.497637 z"
       opacity="1"
       fill="#010203"
       fill-rule="evenodd"
       id="path6"
       style="stroke-width:0.240772" />
    <path
       d="m 74.273015,33.044984 c 0.01758,-0.04551 0.03515,-0.09125 0.05273,-0.137 1.782916,-0.241735 3.638305,0.02817 5.432056,-0.05393 0.09173,0.222714 0.0325,0.539088 0.0313,0.778175 -0.0031,0.552812 -0.05971,1.180022 0.04069,1.722 0.403293,-0.292778 0.690534,-0.788287 1.088771,-1.11381 0.822236,-0.671754 1.823366,-1.136444 2.836052,-1.438372 1.120072,-0.333951 2.340785,-0.420147 3.503713,-0.336599 0.887486,0.06381 1.771118,0.220065 2.605634,0.536921 0.654659,0.248477 1.270313,0.593262 1.838053,1.002093 0.542699,0.391013 1.046154,0.837645 1.456188,1.368547 1.864056,2.414702 1.458355,5.756857 1.452336,8.61506 -0.0072,3.480358 -0.02311,6.961679 -0.0096,10.441558 -1.754986,-0.102569 -3.625302,-0.124239 -5.378844,-0.0099 -0.132666,-1.176649 -0.02865,-2.410607 -0.02624,-3.593761 0.0043,-2.118311 -0.0048,-4.236863 -0.006,-6.355174 -9.62e-4,-1.600411 0.203452,-3.42474 -0.51742,-4.910302 -1.222398,-2.519197 -5.113273,-2.695201 -7.150444,-1.10707 -0.63636,0.496231 -1.061081,1.257311 -1.355305,1.996481 -0.506825,1.272961 -0.408349,2.709166 -0.408108,4.053154 2.66e-4,2.115422 -9.62e-4,4.230845 -0.0031,6.346026 -9.62e-4,0.897838 0.0022,1.795677 7.22e-4,2.693515 -2.65e-4,0.137479 0.108107,0.808753 -0.01661,0.893746 -1.791584,0 -3.648899,-0.189248 -5.433259,-0.01228 -0.204415,-0.55522 -0.0561,-1.417665 -0.0561,-2.007317 4.79e-4,-1.484841 4.79e-4,-2.969681 4.79e-4,-4.454522 0,-3.210212 0.0048,-6.420423 0.0041,-9.630635 -4.78e-4,-1.755227 -0.08186,-3.534051 0.0183,-5.286629 z"
       opacity="1"
       fill="#000001"
       fill-rule="evenodd"
       id="path7"
       style="stroke-width:0.240772" />
    <path
       d="m 80.07634,24.630487 c 0.189487,-0.861482 0.48973,-1.678421 1.153297,-2.299131 1.496638,-1.40057 4.27298,-1.413813 5.744096,0.03058 1.02015,1.001611 1.174485,2.317671 1.152094,3.670809 -0.760599,-0.117497 -1.613173,-0.02408 -2.382198,-0.01661 -1.221917,0.0118 -2.445761,-0.02937 -3.666716,0.0092 -0.164206,0.472153 0.502733,1.147278 0.87304,1.350971 1.003537,0.552331 2.145518,0.335877 2.931879,-0.419666 0.677532,-0.05899 1.379623,0.01035 2.061008,-0.0072 0.04238,0.296631 -0.315412,0.716056 -0.486359,0.936844 -0.692461,0.893264 -1.665901,1.382753 -2.78838,1.480266 -1.120071,0.09727 -2.311169,-0.131462 -3.208767,-0.843184 -1.114293,-0.883392 -1.586687,-2.521122 -1.382994,-3.8928 z m 2.049932,-0.241976 c -0.05827,0.186117 -0.04912,0.100402 -0.04695,0.254496 0.854981,-0.03973 1.725372,-0.0034 2.581798,0.01035 0.432667,0.0067 0.954419,-0.05201 1.373844,0.03419 -0.202971,-2.097846 -3.286055,-2.165262 -3.908691,-0.299039 z"
       opacity="1"
       fill="#000102"
       fill-rule="evenodd"
       id="path8"
       style="stroke-width:0.240772" />
    <path
       d="m 97.23471,21.777099 c 1.831792,-0.0029 3.69031,0.09077 5.51921,-0.0077 0.13243,0.313486 0.02,0.811161 0.0193,1.151131 -10e-4,0.842942 -0.003,1.685644 -0.005,2.528586 -0.004,2.206675 -0.0103,4.41335 -0.008,6.620265 9.6e-4,1.043505 -0.1134,2.167188 0.0106,3.201785 0.19406,-0.01469 0.60987,-0.576167 0.76854,-0.713889 0.58026,-0.503454 1.23227,-0.926731 1.92401,-1.260441 2.28541,-1.102494 5.02804,-1.068786 7.42276,-0.356583 1.22192,0.363325 2.32754,1.002093 3.34432,1.758598 5.65333,4.206286 5.45349,13.062839 0.38451,17.639914 -1.52721,1.3789 -3.42065,2.17682 -5.43229,2.518232 -1.37746,0.233792 -2.82739,0.156985 -4.18101,-0.180579 -1.22673,-0.305779 -2.42915,-0.878576 -3.42787,-1.656028 -0.32793,-0.255218 -0.56124,-0.604338 -0.87232,-0.872798 0.0905,0.764212 -0.0241,1.518309 -0.0205,2.283479 -1.75475,-0.263642 -3.626748,0.253054 -5.376919,-0.02985 -0.113645,-1.575373 -0.05032,-3.173133 -0.05466,-4.753078 -0.0075,-2.809085 -0.006,-5.617931 -0.0014,-8.427017 0.01011,-6.478449 -0.121349,-12.967012 -0.01348,-19.444017 z m 5.58181,21.031186 c -0.58483,4.397218 3.46375,8.118347 7.79981,6.957105 0.74471,-0.1996 1.41429,-0.546794 2.03284,-1.003056 0.63564,-0.468783 1.11621,-1.103217 1.50193,-1.786047 0.42087,-0.745189 0.72521,-1.546478 0.84174,-2.397366 0.13772,-1.004019 0.0722,-2.039819 -0.23379,-3.007722 -1.15498,-3.650584 -5.59024,-5.237993 -8.91193,-3.39344 -1.68829,0.937326 -2.77899,2.738299 -3.0306,4.630526 z"
       opacity="1"
       fill="#000001"
       fill-rule="evenodd"
       id="path9"
       style="stroke-width:0.240772" />
    <path
       d="m 120.75716,40.513006 c 0.17697,-0.754097 0.42496,-1.507954 0.7151,-2.226899 0.44711,-0.125683 1.15233,0.190451 1.59583,0.306021 1.13885,0.296871 2.25676,0.674883 3.37779,1.031708 0.47023,0.14976 1.18965,0.28724 1.55876,0.625525 -0.0705,0.521512 -0.19286,1.193025 -0.43147,1.664938 -1.76823,-0.143982 -3.48276,-0.514048 -5.22451,-0.853055 -0.52632,-0.102328 -1.05313,-0.297113 -1.58259,-0.36164 -0.0342,-0.112922 -0.0275,-0.05128 -0.009,-0.186598 z"
       opacity="1"
       fill="#f86e30"
       fill-rule="evenodd"
       id="path10"
       style="stroke-width:0.240772" />
    <path
       d="m 120.73718,44.799228 c 2.21558,-0.753375 4.56335,-1.100328 6.83431,-1.614376 0.0571,0.562925 0.55113,1.197599 0.5297,1.740059 -1.36735,0.537884 -2.7672,0.913248 -4.14971,1.406107 -0.78804,0.280741 -1.72561,0.784436 -2.55001,0.892783 -0.26967,-0.649843 -0.8338,-1.713333 -0.66429,-2.424573 z"
       opacity="1"
       fill="#f96833"
       fill-rule="evenodd"
       id="path11"
       style="stroke-width:0.240772" />
    <path
       d="m 123.50581,50.501188 c 1.11646,-1.142222 2.30877,-2.275535 3.50974,-3.328912 0.46613,-0.408831 0.97199,-1.076492 1.58307,-1.248403 0.34455,0.30867 1.10129,0.853055 1.23949,1.31293 -0.23788,0.534995 -0.70136,0.995591 -1.07961,1.435722 -0.73749,0.858352 -1.49496,1.695998 -2.26013,2.52955 -0.28555,0.311078 -0.57882,0.611802 -0.87882,0.908914 -0.0881,0.08716 -0.21116,0.272073 -0.34358,0.276888 -0.45819,-0.366696 -0.91301,-0.783472 -1.31606,-1.210361 -0.17287,-0.182986 -0.42448,-0.426647 -0.4541,-0.676328 z"
       opacity="1"
       fill="#fd6b32"
       fill-rule="evenodd"
       id="path12"
       style="stroke-width:0.240772" />
    <path
       d="m 123.63727,34.593629 c 0.54535,-0.611802 1.18075,-1.140778 1.73525,-1.741985 0.39486,0.119905 0.82031,0.738207 1.10827,1.035319 0.84848,0.875928 1.68806,1.757876 2.51944,2.649454 0.23933,0.256904 0.96862,0.822477 0.98933,1.177856 -0.13724,0.39583 -0.69727,0.730984 -1.00041,0.999926 -0.11099,0.09848 -0.22391,0.279777 -0.37247,0.309633 -0.56606,-0.257626 -1.08251,-0.767099 -1.546,-1.173763 -0.80995,-0.711 -1.62376,-1.416943 -2.42746,-2.135165 -0.35538,-0.317338 -0.68307,-0.702814 -1.07047,-0.976812 0.0214,-0.04815 0.0431,-0.09631 0.0645,-0.144463 z"
       opacity="1"
       fill="#fa682f"
       fill-rule="evenodd"
       id="path13"
       style="stroke-width:0.240772" />
    <path
       d="m 128.97471,31.022981 c -0.0325,-0.151445 -0.0325,-0.07801 -0.006,-0.220306 0.73026,-0.381383 1.61486,-0.450966 2.4082,-0.632026 0.46661,1.433315 0.7358,2.961253 1.07023,4.430925 0.15097,0.662123 0.46806,1.519752 0.39992,2.201859 -0.65321,0.04478 -1.35241,0.23692 -1.97313,0.434112 -0.15433,-0.294464 -0.18081,-0.6614 -0.26845,-0.980664 -0.13941,-0.508992 -0.31782,-1.008112 -0.47601,-1.511566 -0.37922,-1.208675 -0.96814,-2.466949 -1.15474,-3.722334 z"
       opacity="1"
       fill="#fc682d"
       fill-rule="evenodd"
       id="path14"
       style="stroke-width:0.240772" />
    <path
       d="m 128.93787,54.249764 c 0.39607,-1.532028 0.79503,-3.080434 1.26887,-4.590796 0.18732,-0.597596 0.50369,-1.149686 0.67609,-1.748245 0.57953,-0.04502 1.42657,0.281944 1.9346,0.543904 0.15433,0.3118 -0.16734,1.141981 -0.26124,1.480747 -0.3236,1.167503 -0.60217,2.369918 -0.87183,3.551384 -0.0732,0.32071 -0.14519,0.641659 -0.21839,0.962129 -0.0282,0.12231 -0.0202,0.358265 -0.11099,0.449998 -0.82537,-0.0833 -1.61919,-0.416774 -2.4318,-0.512359 0.005,-0.04551 0.01,-0.09125 0.0147,-0.136762 z"
       opacity="1"
       fill="#fc6c31"
       fill-rule="evenodd"
       id="path15"
       style="stroke-width:0.240772" />
    <path
       d="m 134.00106,36.18176 c 0.62649,-1.964698 0.62408,-4.183893 1.41839,-6.0949 0.8179,0.136036 1.68251,0.346952 2.45226,0.653214 -0.16059,0.939011 -0.51043,1.847684 -0.7866,2.757802 -0.37585,1.238049 -0.74495,2.480432 -1.21229,3.687662 -0.1565,0.06669 -0.44687,-0.102087 -0.60843,-0.147593 -0.44856,-0.126646 -0.8923,-0.297594 -1.35555,-0.350564 0.0236,-0.169744 0.0496,-0.339729 0.0922,-0.505621 z"
       opacity="1"
       fill="#fd682c"
       fill-rule="evenodd"
       id="path16"
       style="stroke-width:0.240772" />
    <path
       d="m 133.98421,48.545398 c 0.61108,-0.339489 1.31654,-0.480099 1.98781,-0.652733 0.23186,0.36501 0.31541,0.85763 0.43748,1.269109 0.30073,1.013409 0.5663,2.034763 0.82802,3.059007 0.16685,0.653695 0.50706,1.408516 0.49599,2.08629 -0.68211,0.391495 -1.62858,0.43122 -2.38605,0.594221 -0.28845,-0.332503 -0.31445,-1.236841 -0.41678,-1.673605 -0.35321,-1.50747 -0.822,-3.139182 -0.94647,-4.682289 z"
       opacity="1"
       fill="#fb682b"
       fill-rule="evenodd"
       id="path17"
       style="stroke-width:0.240772" />
    <path
       d="m 136.99964,37.606648 c 0.88411,-1.377215 2.19078,-2.535328 3.3188,-3.711258 0.25762,-0.26846 0.49478,-0.554257 0.7488,-0.825366 0.10208,-0.108829 0.24149,-0.28074 0.41605,-0.24029 0.15072,0.03467 0.31276,0.25281 0.42255,0.351286 0.42858,0.38379 0.88893,0.842461 1.22963,1.307391 -0.097,0.374401 -0.70595,0.789492 -0.97224,1.058675 -0.86605,0.874965 -1.76173,1.727538 -2.66053,2.568314 -0.28435,0.265812 -0.83163,0.972718 -1.21445,1.052895 -0.50201,-0.363325 -0.94479,-0.871835 -1.35074,-1.336284 0.0173,-0.168059 -0.007,-0.09414 0.0621,-0.225363 z"
       opacity="1"
       fill="#fc6a31"
       fill-rule="evenodd"
       id="path18"
       style="stroke-width:0.240772" />
    <path
       d="m 136.97652,47.255342 c 0.4305,-0.420147 0.86991,-0.843183 1.27441,-1.28813 0.50369,0.105458 1.03459,0.65803 1.40322,0.999444 0.88074,0.815736 1.7439,1.649529 2.59359,2.497287 0.29061,0.289889 0.57159,0.591576 0.87063,0.872798 0.0539,0.0508 0.2415,0.175041 0.23451,0.252088 -0.40136,0.478173 -0.79839,0.982109 -1.23347,1.429463 -0.14037,0.144463 -0.3118,0.384994 -0.50466,0.457707 -0.40931,-0.152408 -0.76926,-0.717741 -1.06638,-1.0293 -0.88868,-0.932268 -1.71381,-1.911006 -2.54038,-2.897449 -0.25811,-0.308188 -0.97537,-0.919989 -1.03147,-1.293908 z"
       opacity="1"
       fill="#f9662f"
       fill-rule="evenodd"
       id="path19"
       style="stroke-width:0.240772" />
    <path
       d="m 138.94314,40.113325 c 2.04777,-0.848962 4.26239,-1.373604 6.38552,-1.994073 0.20032,0.783472 0.65225,1.635804 0.54029,2.486692 -2.12722,0.644788 -4.3688,0.877373 -6.5396,1.303539 -0.31397,-0.462764 -0.32047,-1.192543 -0.5167,-1.713814 0.0436,-0.02745 0.0872,-0.0549 0.13049,-0.08234 z"
       opacity="1"
       fill="#fa6a30"
       fill-rule="evenodd"
       id="path20"
       style="stroke-width:0.240772" />
    <path
       d="m 138.92003,44.598665 c 0.15988,-0.469746 0.26485,-1.001852 0.35369,-1.490619 0.53717,-0.134832 1.32449,0.204656 1.86526,0.312763 1.60427,0.320708 3.35517,0.660437 4.89322,1.218064 -0.058,0.805623 -0.26823,1.632434 -0.53332,2.394237 -0.11316,0.04839 -0.27905,-0.05538 -0.39245,-0.08764 -0.36598,-0.104254 -0.73893,-0.19984 -1.10731,-0.29663 -1.29945,-0.340693 -2.60708,-0.733633 -3.86151,-1.215658 -0.3443,-0.132183 -1.04567,-0.293019 -1.26308,-0.59254 0.0306,-0.164446 0.0152,-0.08403 0.0455,-0.241975 z"
       opacity="1"
       fill="#f96933"
       fill-rule="evenodd"
       id="path21"
       style="stroke-width:0.240772" />
    <path
       d="m 143.97239,54.381471 c 0.8793,-0.955868 1.64977,-2.041026 2.47538,-3.047212 1.29294,-1.575852 2.61382,-3.130998 3.85933,-4.745855 0.57978,-0.751449 1.18869,-1.479062 1.75787,-2.239179 0.21092,-0.281703 0.64335,-0.613246 0.73147,-0.955142 -1.22288,-1.246476 -2.1708,-2.845683 -3.25452,-4.216879 -1.03314,-1.307151 -2.04583,-2.628989 -3.10547,-3.915193 -0.61734,-0.749282 -1.30667,-1.501213 -1.83853,-2.312373 2.31598,0.152168 4.7314,-0.334673 7.03776,0.0034 0.38355,0.861241 1.14704,1.624488 1.68973,2.392069 0.91446,1.293667 1.84769,2.582279 2.73445,3.8928 0.29158,-0.304095 0.49527,-0.769266 0.75001,-1.111885 0.94262,-1.267664 1.83396,-2.571684 2.78477,-3.833329 0.31974,-0.42424 0.59711,-0.952494 0.9679,-1.329783 0.81597,-0.114608 1.70153,-0.04791 2.52594,-0.05754 1.5,-0.01782 3.0147,-0.0626 4.51326,-0.02047 -0.15409,0.359954 -0.5569,0.681144 -0.80538,0.986924 -0.6142,0.756746 -1.21638,1.521438 -1.81807,2.288297 -1.04422,1.330746 -2.12288,2.635489 -3.16013,3.971291 -0.8415,1.083715 -1.64784,2.269276 -2.57939,3.272573 2.06294,2.64199 4.17716,5.251476 6.20325,7.922118 0.5651,0.744948 1.18388,1.45065 1.77304,2.176339 0.19864,0.24438 0.61398,0.618543 0.71317,0.91036 -0.73122,-0.07392 -1.51277,9.57e-4 -2.24905,0.0027 -1.51806,0.0038 -3.03757,0.01131 -4.55372,0.03226 -0.57207,-0.513082 -1.011,-1.343509 -1.45787,-1.97096 -0.76445,-1.073843 -1.55081,-2.131072 -2.32634,-3.196488 -0.32986,-0.453373 -0.67994,-0.894467 -1.0281,-1.334358 -0.10497,-0.132665 -0.24727,-0.357787 -0.4057,-0.404737 -0.73845,1.209879 -1.65265,2.347526 -2.47321,3.50588 -0.78491,1.108273 -1.52336,2.288539 -2.38099,3.341193 -0.18997,0.0809 -0.46493,0.03154 -0.66814,0.02938 -0.47986,-0.0048 -0.95972,-0.0053 -1.43958,-0.0036 -1.64784,0.005 -3.32722,0.111478 -4.97025,0.04382 -9.6e-4,-0.02552 -0.002,-0.05081 -0.003,-0.07632 z"
       opacity="1"
       fill="#000001"
       fill-rule="evenodd"
       id="path22"
       style="stroke-width:0.240772" />
    <path
       d="m 166.75688,42.208281 c 0.13892,-0.861 0.2256,-1.712851 0.50851,-2.546404 0.61854,-1.823124 1.75546,-3.558368 3.26318,-4.770413 5.19369,-4.175226 13.98452,-3.040228 17.15018,3.11944 1.18123,2.298409 1.32184,4.989517 1.00547,7.509917 -0.2899,0.159632 -1.00378,0.01782 -1.33412,0.01084 -1.08372,-0.02311 -2.16815,-0.03274 -3.25211,-0.03828 -3.9501,-0.02022 -7.90526,0.0573 -11.8532,0.01541 0.24992,1.141499 0.56365,2.088937 1.35892,2.987498 1.52504,1.722482 4.27659,2.140944 6.3766,1.376252 0.61276,-0.223196 1.161,-0.555461 1.63268,-1.005223 0.29422,-0.280258 0.54631,-0.693423 0.90361,-0.889652 1.83445,-0.08018 3.829,-0.217177 5.65212,0.0048 -0.14205,1.080584 -0.90723,2.254107 -1.54647,3.108366 -2.54881,3.405718 -7.32814,4.539273 -11.35577,3.644082 -1.18629,-0.263647 -2.35234,-0.672236 -3.3985,-1.297518 -3.88293,-2.320561 -5.57483,-6.847554 -5.1111,-11.229122 z m 5.53558,-1.088289 c -0.0397,0.171911 -0.0713,0.346712 -0.10594,0.519827 0.34936,0.107384 0.83091,0.03587 1.19857,0.03347 0.76252,-0.0053 1.52529,-9.62e-4 2.28781,-0.0026 2.5505,-0.0053 5.10292,0.03876 7.65222,0.0094 0.14205,-0.07319 0.0479,-0.206341 0.0236,-0.335154 -0.0732,-0.390532 -0.14326,-0.768544 -0.30602,-1.134517 -0.5964,-1.341341 -1.89704,-2.381957 -3.28919,-2.797288 -2.12794,-0.634916 -4.84023,-0.122313 -6.34939,1.578259 -0.55811,0.628897 -0.835,1.356028 -1.11165,2.128665 z"
       opacity="1"
       fill="#000001"
       fill-rule="evenodd"
       id="path23"
       style="stroke-width:0.240772" />
    <path
       d="m 191.0067,32.963362 c 1.22264,-0.08451 2.46262,-0.01974 3.6879,-0.01661 0.53934,0.0012 1.29271,-0.129535 1.80291,0.03973 -0.0867,0.818866 -0.0891,1.780027 -0.0176,2.599615 0.21669,-0.158669 0.3508,-0.454337 0.53018,-0.658512 0.29952,-0.341896 0.64454,-0.647435 1.01629,-0.908673 1.86069,-1.307873 3.95276,-1.378178 6.14403,-1.348082 -0.0939,1.312929 -0.0226,2.656437 -0.0243,3.973218 -5.3e-4,0.38668 0.003,0.772638 0.0123,1.159317 0.003,0.123275 -0.0515,0.342859 -0.007,0.455782 -2.05667,0.09872 -4.17691,-0.310115 -5.94634,1.075046 -1.22096,0.955864 -1.56911,2.62321 -1.67361,4.084696 -0.15337,2.14287 -0.0467,4.319929 -0.0532,6.469059 -0.005,1.485081 -0.15746,3.05082 -0.0176,4.526753 -1.75065,-0.135315 -3.60267,-0.05321 -5.35814,0.0036 -0.15217,-0.793338 -0.059,-1.677453 -0.0607,-2.4838 -0.003,-1.524809 -0.003,-3.049377 -0.007,-4.574185 -0.0106,-4.798825 -0.0144,-9.598372 -0.0284,-14.396956 z"
       opacity="1"
       fill="#000001"
       fill-rule="evenodd"
       id="path24"
       style="stroke-width:0.240772" />
    <path
       d="m 5.791872,31.081741 c 0.071371,-0.709326 0.6917824,-1.142737 1.3751913,-0.867818 0.8438949,0.339711 1.5201271,1.271922 2.1881852,1.871799 2.5372655,2.277499 5.0207045,4.6168 7.5308585,6.924405 0.672244,0.618015 1.353062,1.228063 2.013146,1.858837 0.380181,0.363236 0.847882,0.747208 1.035281,1.25498 0.117025,0.317181 -0.03987,0.604857 -0.223882,0.860642 -0.375995,0.52252 -0.871208,0.925432 -1.349275,1.350269 -2.002779,1.779098 -4.001572,3.598862 -5.920022,5.470861 -1.163271,1.135162 -2.411868,2.175228 -3.5617814,3.326338 C 8.3855571,53.626867 7.9304161,54.31247 7.1698545,54.363904 6.6010779,54.40238 6.05144,54.048315 5.8961378,53.48273 c -0.127392,-0.463517 -0.057815,-1.009566 -0.057815,-1.485639 2.042e-4,-0.96351 5.972e-4,-1.927021 0.00139,-2.890532 0.00299,-4.086897 0.0018,-8.1738 -0.00339,-12.260697 -0.00139,-1.262552 0.00658,-2.525703 -0.00897,-3.788056 -0.00817,-0.652907 -0.1006769,-1.325551 -0.035486,-1.976065 z"
       opacity="1"
       fill="#000000"
       fill-rule="evenodd"
       id="path1"
       style="stroke-width:0.199361" />
    <path
       d="m 8.4676941,26.893966 c 0.082336,-0.51794 0.5905068,-0.870011 0.9543401,-1.203542 0.8113988,-0.744015 1.6359558,-1.474074 2.4441648,-2.221877 0.284687,-0.263754 0.961717,-0.891941 1.38496,-0.555021 0.573562,0.456736 0.389153,1.215703 0.387957,1.870005 -0.0024,1.22906 -0.0066,2.45812 -0.01,3.68718 -0.0016,0.569973 0.11523,1.26355 -0.02791,1.816976 -0.149122,0.575953 -0.882172,0.686598 -1.333724,0.421647 -0.509368,-0.298841 -0.910881,-0.772922 -1.34788,-1.163071 C 10.349461,29.037494 9.7446006,28.566205 9.1772193,28.054047 8.8524605,27.760787 8.3895446,27.385391 8.4676941,26.893966 Z"
       opacity="1"
       fill="#000000"
       fill-rule="evenodd"
       id="path2"
       style="stroke-width:0.199361" />
    <path
       d="m 10.161863,56.097947 c 0.109449,-0.470494 0.526113,-0.808411 0.866622,-1.118815 0.705139,-0.64194 1.401108,-1.301826 2.124589,-1.922637 2.354651,-2.02072 4.720866,-4.120791 6.921013,-6.308976 0.550634,-0.547641 1.135759,-1.04744 1.719288,-1.558998 0.668258,-0.585526 1.074954,-1.053626 2.004175,-1.119412 0.417462,-0.02951 1.006773,-0.0642 1.394729,0.114633 1.405893,0.648718 2.251981,2.639734 3.929603,2.654091 1.277704,0.01116 2.224867,-0.873401 3.099663,-1.698756 0.376393,-0.35526 0.709924,-0.73026 1.198358,-0.936998 0.573362,-0.242622 1.419649,-0.284288 1.999391,-0.03489 0.420851,0.181021 0.784285,0.58453 1.117816,0.88915 0.639949,0.584525 1.277505,1.176032 1.924631,1.751983 2.573748,2.290656 5.19355,4.557789 7.695529,6.926597 0.497207,0.470888 1.002188,0.933808 1.496603,1.407686 0.374998,0.35925 0.696168,0.771328 0.544853,1.318576 -0.172048,0.622404 -0.816184,0.68819 -1.354059,0.691977 -1.323358,0.0096 -2.647114,-0.0082 -3.970671,-0.003 -5.681586,0.02293 -11.363372,0.0062 -17.045158,-6.12e-4 -4.054003,-0.005 -8.107808,-0.02931 -12.161812,-0.01635 -0.911278,0.003 -1.970882,0.167863 -2.866212,-0.01415 -0.430021,-0.08752 -0.736837,-0.599876 -0.638951,-1.021126 z"
       opacity="1"
       fill="#000000"
       fill-rule="evenodd"
       id="path3"
       style="stroke-width:0.199361" />
    <path
       d="m 16.634115,14.036583 c 0.122208,-1.020728 1.217496,-1.783881 2.211111,-1.339705 0.521528,0.233053 0.958328,0.762356 1.360439,1.156293 0.765945,0.749797 1.545844,1.481052 2.337905,2.202938 0.620411,0.565188 1.165663,1.068575 1.021326,1.979654 -0.154305,0.973679 -1.339905,1.579935 -2.231447,1.153303 -0.588912,-0.281498 -1.029898,-0.864429 -1.48484,-1.317178 -0.789668,-0.78608 -1.620405,-1.527902 -2.412665,-2.310393 -0.446569,-0.440987 -0.88277,-0.84868 -0.801829,-1.524912 z"
       opacity="1"
       fill="#f08250"
       fill-rule="evenodd"
       id="path4-8"
       style="stroke-width:0.199361" />
    <path
       d="m 17.343042,24.501037 c 0.246011,-1.313788 1.407886,-1.404896 2.509953,-1.395127 0.929022,0.008 1.858243,0.01096 2.787465,0.01734 4.883743,0.03329 9.768883,0.02392 14.652826,0.01794 0.298842,-4.08e-4 0.597884,-0.0018 0.896925,-0.002 1.16028,-0.0014 3.074942,-0.220493 3.275101,1.386754 0.02691,0.216307 0.01535,0.441385 -0.02253,0.655498 -0.104066,0.591305 -0.528905,1.063591 -1.121804,1.189986 -0.496209,0.105661 -1.030696,0.06479 -1.53488,0.07077 -0.863631,0.01 -1.727262,0.0084 -2.590894,0.01296 -4.884939,0.02532 -9.767886,0.01136 -14.653425,-0.01495 -1.331132,-0.007 -3.812577,0.442381 -4.16405,-1.343693 -0.03828,-0.194377 -0.07177,-0.397526 -0.03469,-0.595491 z"
       opacity="1"
       fill="#f27955"
       fill-rule="evenodd"
       id="path5-9"
       style="stroke-width:0.199361" />
    <path
       d="m 21.410403,30.972292 c 0.377191,-1.087514 1.614823,-1.332529 2.484435,-0.647126 1.250591,0.98584 2.338503,2.237826 3.485028,3.341887 0.315987,0.304424 0.638354,0.598681 0.972283,0.883368 0.136961,0.116826 0.277112,0.267742 0.461122,0.292263 1.391739,-0.937793 2.56737,-2.338702 3.753567,-3.515929 0.5927,-0.588513 1.220288,-1.352464 2.116216,-1.412073 1.099874,-0.07316 2.222475,1.136158 1.572758,2.200546 -0.359248,0.588314 -0.971884,1.031692 -1.457129,1.510757 -1.062394,1.048638 -2.16486,2.051822 -3.231241,3.096074 -0.585722,0.573561 -1.261755,1.440384 -2.072955,1.690779 -0.93899,0.289871 -1.79365,-0.3112 -2.442968,-0.913271 -1.54724,-1.435 -3.124983,-2.857241 -4.643315,-4.320151 -0.630778,-0.607851 -1.209323,-1.280893 -0.997801,-2.207124 z"
       opacity="1"
       fill="#f5755b"
       fill-rule="evenodd"
       id="path6-7"
       style="stroke-width:0.199361" />
    <path
       d="m 27.910565,14.440289 c 0.03529,-1.05422 0.02492,-2.110235 0.01515,-3.16625 -0.005,-0.549638 -0.06499,-1.222281 0.183412,-1.7286582 0.635164,-1.2950484 2.356645,-1.044053 2.95433,0.1449351 0.259169,0.5157471 0.101674,1.3674161 0.100477,1.9342001 -0.0026,1.485836 0.0622,3.00058 -0.03788,4.483227 -0.08293,1.228861 -1.913466,1.645526 -2.749586,0.894334 -0.669454,-0.601273 -0.49282,-1.756171 -0.465906,-2.561788 z"
       opacity="1"
       fill="#f37a52"
       fill-rule="evenodd"
       id="path7-3"
       style="stroke-width:0.199361" />
    <path
       d="m 35.471128,17.32544 c 0.08074,-0.657493 0.562995,-1.115225 1.023917,-1.538867 0.753784,-0.69258 1.486236,-1.398517 2.21809,-2.114621 0.379981,-0.371808 0.810801,-0.862834 1.29445,-1.096086 1.142138,-0.551233 2.220083,0.73285 2.122994,1.791656 -0.06041,0.656296 -0.542461,1.113232 -1.004978,1.5287 -0.635762,0.571368 -1.272521,1.150512 -1.856648,1.775707 -0.497007,0.532095 -1.06678,1.203143 -1.756768,1.487233 -1.098279,0.45235 -2.167053,-0.809007 -2.041057,-1.833722 z"
       opacity="1"
       fill="#f4755b"
       fill-rule="evenodd"
       id="path8-6"
       style="stroke-width:0.199361" />
    <path
       d="m 38.463136,42.03463 c 0.180422,-0.491822 0.777906,-0.912674 1.170448,-1.230457 0.631376,-0.511359 1.21331,-1.089708 1.825747,-1.623396 2.527697,-2.203736 4.920027,-4.56676 7.402071,-6.822728 0.736439,-0.669454 1.41287,-1.420247 2.229253,-1.995403 0.385564,-0.271729 0.891542,-0.431417 1.323756,-0.130581 0.550835,0.383371 0.492821,1.04166 0.487637,1.626785 -0.01096,1.296045 -0.0024,2.592289 -0.0038,3.888334 -0.0046,4.186778 0.0044,8.373558 -0.008,12.560135 -0.0034,1.196165 -0.0046,2.392529 -0.0026,3.588894 9.96e-4,0.540669 0.110646,1.180216 -0.09809,1.690978 -0.252192,0.617423 -1.084324,0.91766 -1.699751,0.668261 -0.60207,-0.24422 -1.101469,-0.882374 -1.563588,-1.318975 -2.75711,-2.604647 -5.628904,-5.087287 -8.395235,-7.679976 -0.729063,-0.683209 -1.540661,-1.287275 -2.237827,-2.002979 -0.320771,-0.329343 -0.607851,-0.734245 -0.430021,-1.218892 z"
       opacity="1"
       fill="#000000"
       fill-rule="evenodd"
       id="path9-1"
       style="stroke-width:0.199361" />
    <path
       d="m 44.945356,23.398771 c 0.199161,-0.684805 0.903304,-0.716902 1.421044,-0.370612 0.435603,0.291266 0.799637,0.721686 1.173039,1.085918 0.63337,0.618019 1.276309,1.226668 1.929814,1.823555 0.336322,0.307215 0.858647,0.781694 0.694972,1.292257 -0.174441,0.543856 -0.849277,0.890744 -1.252385,1.245607 -0.872204,0.768337 -1.667255,1.71251 -2.651301,2.345082 -0.421648,0.270932 -0.872203,0.237638 -1.211316,-0.142344 -0.331338,-0.371409 -0.147328,-1.3413 -0.146929,-1.806807 7.96e-4,-1.229658 -0.01096,-2.459117 -0.01356,-3.688775 -9.95e-4,-0.562397 -0.102272,-1.237633 0.05662,-1.783881 z"
       opacity="1"
       fill="#000000"
       fill-rule="evenodd"
       id="path10-2"
       style="stroke-width:0.199361" />
  </g>
</svg>
