<?xml version="1.0" encoding="UTF-8" standalone="no"?>
<!-- Created with Inkscape (http://www.inkscape.org/) -->

<svg
   width="978.79089mm"
   height="258.96646mm"
   viewBox="0 0 978.79089 258.96646"
   version="1.1"
   id="svg1"
   xmlns="http://www.w3.org/2000/svg"
   xmlns:svg="http://www.w3.org/2000/svg">
  <defs
     id="defs1" />
  <path
     d="m 290.36725,133.44194 c 0.0168,-0.23372 0.0324,-0.46624 0.0479,-0.69997 2.20656,-1.37595 5.80945,-0.76468 8.3564,-0.79225 6.20976,-0.0647 12.63647,0.35598 18.81268,-0.22892 0.37276,2.85858 0.0252,5.90293 0.0264,8.78788 10e-4,5.99283 0.0108,11.98685 0.0132,17.97968 0.01,18.37761 0.0108,36.75521 -0.0156,55.13281 -0.01,6.59092 -0.006,13.18303 -0.0288,19.77394 -0.006,1.53656 0.0491,3.08391 -0.0228,4.61807 -0.004,0.0695 -0.0168,1.13864 -0.12705,1.18778 -8.97485,0.036 -17.96529,-0.29844 -26.94015,-0.0276 -0.38834,-7.06195 0.006,-14.25933 0.018,-21.35004 0.0228,-13.58335 0.007,-27.16549 0.0168,-40.74883 0.007,-9.88218 0.006,-19.76555 -0.0324,-29.64772 -0.0192,-4.60968 -0.53576,-9.39556 -0.12465,-13.98486 z"
     opacity="1"
     fill="#000001"
     fill-rule="evenodd"
     id="path26"
     style="stroke-width:1.19857" />
  <path
     d="m 332.16003,132.77793 c 0.0875,-0.22653 0.17499,-0.45425 0.26249,-0.68198 8.87537,-1.20336 18.11152,0.14023 27.04083,-0.26848 0.45665,1.10867 0.16181,2.68359 0.15581,3.87376 -0.0156,2.75191 -0.29724,5.87417 0.20256,8.57214 2.0076,-1.45745 3.43749,-3.9241 5.41992,-5.54456 4.0931,-3.344 9.07673,-5.65723 14.1179,-7.16023 5.57573,-1.66241 11.65245,-2.0915 17.44152,-1.6756 4.41792,0.31762 8.81665,1.09549 12.97088,2.67281 3.2589,1.23692 6.32363,2.95326 9.14985,4.98843 2.70157,1.94647 5.20777,4.1698 7.24892,6.81264 9.2793,12.02042 7.25972,28.6577 7.22975,42.88587 -0.036,17.32527 -0.11506,34.65533 -0.0479,51.97819 -8.73634,-0.51058 -18.0468,-0.61846 -26.77595,-0.0491 -0.66041,-5.85739 -0.14263,-12.00004 -0.13065,-17.88979 0.0216,-10.54498 -0.024,-21.09115 -0.03,-31.63613 -0.005,-7.96687 1.01279,-17.0484 -2.57571,-24.44355 -6.08512,-12.54059 -25.45394,-13.41674 -35.595,-5.511 -3.16781,2.47024 -5.28208,6.25891 -6.74673,9.9385 -2.52298,6.33682 -2.03276,13.48626 -2.03157,20.17666 10e-4,10.53059 -0.005,21.06119 -0.0156,31.59059 -0.005,4.46945 0.0108,8.9389 0.004,13.40835 -0.001,0.68438 0.53816,4.02598 -0.0827,4.44907 -8.91852,0 -18.16426,-0.94207 -27.04682,-0.0611 -1.01759,-2.7639 -0.27927,-7.05716 -0.27927,-9.99244 0.002,-7.39156 0.002,-14.78311 0.002,-22.17466 0,-15.98048 0.024,-31.96095 0.0204,-47.94143 -0.002,-8.73754 -0.40751,-17.59254 0.0911,-26.3169 z"
     opacity="1"
     fill="#000001"
     fill-rule="evenodd"
     id="path28"
     style="stroke-width:1.19857" />
  <path
     d="m 446.46363,76.686266 c 9.11868,-0.01438 18.37041,0.451859 27.47471,-0.03835 0.65921,1.560532 0.0995,4.037967 0.0959,5.730342 -0.007,4.196177 -0.0156,8.391157 -0.0228,12.587335 -0.0192,10.984857 -0.0515,21.969707 -0.0408,32.955757 0.005,5.19458 -0.56452,10.78828 0.0527,15.93852 0.96605,-0.0731 3.03597,-2.86817 3.82582,-3.55375 2.88855,-2.5062 6.13426,-4.61328 9.57774,-6.27449 11.37678,-5.48823 25.02964,-5.32043 36.95057,-1.77507 6.08272,1.80863 11.58654,4.98843 16.64808,8.75432 28.14232,20.93894 27.14751,65.02697 1.91411,87.8117 -7.6025,6.86419 -17.02802,10.83623 -27.04204,12.5358 -6.85699,1.1638 -14.07475,0.78146 -20.81309,-0.89893 -6.10669,-1.52217 -12.09232,-4.37356 -17.06397,-8.24373 -1.63245,-1.27048 -2.79386,-3.0084 -4.3424,-4.3448 0.45066,3.80425 -0.11986,7.55815 -0.10188,11.3672 -8.73515,-1.31243 -18.05399,1.25969 -26.76637,-0.14863 -0.56572,-7.84221 -0.2505,-15.79589 -0.27207,-23.66088 -0.0372,-13.98366 -0.03,-27.96613 -0.007,-41.94979 0.0503,-32.2498 -0.60408,-64.54994 -0.0671,-96.79255 z m 27.78634,104.693494 c -2.91132,21.8894 17.24256,40.41323 38.82753,34.63255 3.70716,-0.99361 7.04037,-2.72194 10.11949,-4.99322 3.16421,-2.33361 5.55655,-5.49183 7.47665,-8.89096 2.09509,-3.70956 3.61008,-7.69839 4.19018,-11.93412 0.68558,-4.99801 0.35957,-10.15424 -1.1638,-14.97248 -5.74952,-18.17265 -27.8283,-26.07479 -44.36371,-16.89258 -8.40434,4.66602 -13.83384,13.63129 -15.08634,23.05081 z"
     opacity="1"
     fill="#000001"
     fill-rule="evenodd"
     id="path30"
     style="stroke-width:1.19857" />
  <path
     d="m 563.55868,169.95384 c 0.88095,-3.75391 2.11547,-7.50662 3.55974,-11.08553 2.22574,-0.62566 5.73633,0.94806 7.94409,1.52337 5.66922,1.47783 11.23416,3.35958 16.81468,5.13586 2.3408,0.7455 5.92211,1.42988 7.75951,3.11387 -0.35118,2.59609 -0.96005,5.93889 -2.14783,8.28808 -8.80226,-0.71674 -17.33725,-2.55894 -26.00767,-4.24652 -2.62007,-0.50939 -5.24253,-1.47903 -7.87817,-1.80024 -0.1702,-0.56213 -0.13664,-0.2553 -0.0443,-0.92889 z"
     opacity="1"
     fill="#f86e30"
     fill-rule="evenodd"
     id="path31"
     style="stroke-width:1.19857" />
  <path
     d="m 563.4592,191.2907 c 11.0292,-3.75031 22.71641,-5.47744 34.02128,-8.03638 0.28406,2.80225 2.74352,5.96166 2.63685,8.66203 -6.80666,2.6776 -13.77512,4.54616 -20.65728,6.99962 -3.92291,1.39753 -8.59012,3.90493 -12.69401,4.44429 -1.34239,-3.23493 -4.15063,-8.529 -3.30684,-12.06956 z"
     opacity="1"
     fill="#f96833"
     fill-rule="evenodd"
     id="path32"
     style="stroke-width:1.19857" />
  <path
     d="m 577.2415,219.67513 c 5.55775,-5.686 11.49305,-11.32764 17.47149,-16.57137 2.32043,-2.03516 4.83861,-5.35878 7.88057,-6.21456 1.71515,1.53656 5.48224,4.24652 6.17022,6.53578 -1.18419,2.66321 -3.49142,4.95607 -5.37437,7.14704 -3.67121,4.27289 -7.44189,8.4427 -11.25093,12.59213 -1.4215,1.54855 -2.88136,3.04556 -4.37477,4.52459 -0.43867,0.43388 -1.05114,1.35438 -1.71035,1.37835 -2.28087,-1.82542 -4.54496,-3.90013 -6.55136,-6.02519 -0.86057,-0.91091 -2.11307,-2.12386 -2.2605,-3.36677 z"
     opacity="1"
     fill="#fd6b32"
     fill-rule="evenodd"
     id="path33"
     style="stroke-width:1.19857" />
  <path
     d="m 577.89592,140.48711 c 2.71475,-3.04556 5.87777,-5.67881 8.63806,-8.67163 1.96565,0.59689 4.08352,3.67481 5.517,5.15384 4.22374,4.36038 8.40314,8.75072 12.54179,13.18901 1.19137,1.27887 4.82183,4.0943 4.9249,5.86338 -0.68318,1.97044 -3.47104,3.63885 -4.98003,4.97765 -0.55254,0.49021 -1.11467,1.39273 -1.85419,1.54135 -2.81782,-1.28246 -5.38875,-3.81863 -7.69598,-5.84301 -4.03198,-3.53936 -8.08313,-7.05355 -12.08394,-10.62888 -1.76908,-1.5797 -3.40033,-3.49861 -5.32882,-4.86258 0.10667,-0.23971 0.21454,-0.47942 0.32121,-0.71913 z"
     opacity="1"
     fill="#fa682f"
     fill-rule="evenodd"
     id="path34"
     style="stroke-width:1.19857" />
  <path
     d="m 604.46572,122.71238 c -0.1618,-0.7539 -0.1618,-0.38833 -0.03,-1.09669 3.63525,-1.89852 8.03878,-2.24491 11.98805,-3.14623 2.32282,7.13506 3.66282,14.74115 5.32762,22.0572 0.7515,3.29605 2.33001,7.56534 1.99082,10.96088 -3.25171,0.22293 -6.73234,1.17939 -9.82224,2.16101 -0.76828,-1.46584 -0.90013,-3.29246 -1.3364,-4.88175 -0.69397,-2.53377 -1.58211,-5.0184 -2.36957,-7.5246 -1.88774,-6.0168 -4.81943,-12.2805 -5.74832,-18.52982 z"
     opacity="1"
     fill="#fc682d"
     fill-rule="evenodd"
     id="path35"
     style="stroke-width:1.19857" />
  <path
     d="m 604.28234,238.3356 c 1.97164,-7.62648 3.95766,-15.33445 6.31644,-22.85305 0.93249,-2.97484 2.5074,-5.72315 3.36557,-8.70279 2.88495,-0.22413 7.1015,1.40352 9.63048,2.70756 0.76828,1.55214 -0.83301,5.6848 -1.30045,7.37118 -1.61087,5.81184 -2.99761,11.79748 -4.34,17.67884 -0.36437,1.59649 -0.72274,3.19418 -1.0871,4.78947 -0.14023,0.60887 -0.10068,1.78346 -0.55254,2.24012 -4.10868,-0.41471 -8.06035,-2.07472 -12.10551,-2.55055 0.024,-0.22653 0.0491,-0.45426 0.0731,-0.68078 z"
     opacity="1"
     fill="#fc6c31"
     fill-rule="evenodd"
     id="path36"
     style="stroke-width:1.19857" />
  <path
     d="m 629.48697,148.39284 c 3.11867,-9.78029 3.10669,-20.82747 7.06075,-30.34048 4.07153,0.67719 8.37558,1.72713 12.20739,3.2517 -0.79944,4.67441 -2.54096,9.1978 -3.91571,13.72837 -1.87096,6.16303 -3.70836,12.34763 -6.03478,18.35723 -0.77906,0.33201 -2.22453,-0.50819 -3.02877,-0.73472 -2.23293,-0.63044 -4.44189,-1.48142 -6.74793,-1.74511 0.11746,-0.84499 0.24691,-1.69118 0.45905,-2.51699 z"
     opacity="1"
     fill="#fd682c"
     fill-rule="evenodd"
     id="path37"
     style="stroke-width:1.19857" />
  <path
     d="m 629.40308,209.93918 c 3.04195,-1.68998 6.55375,-2.38994 9.89535,-3.24931 1.15422,1.81703 1.57012,4.26929 2.1778,6.31764 1.497,5.04476 2.81902,10.12908 4.12186,15.22777 0.83061,3.25411 2.52418,7.01161 2.46905,10.38557 -3.39554,1.94887 -8.1071,2.14663 -11.87779,2.95806 -1.43588,-1.65522 -1.56532,-6.15703 -2.07471,-8.33123 -1.7583,-7.50421 -4.09191,-15.62689 -4.71156,-23.3085 z"
     opacity="1"
     fill="#fb682b"
     fill-rule="evenodd"
     id="path38"
     style="stroke-width:1.19857" />
  <path
     d="m 644.41391,155.48595 c 4.40113,-6.85579 10.90575,-12.62089 16.52103,-18.47468 1.28246,-1.33641 2.46305,-2.7591 3.72754,-4.10869 0.50819,-0.54175 1.20216,-1.39752 2.07112,-1.19617 0.7503,0.1726 1.55693,1.2585 2.10348,1.74871 2.13345,1.91051 4.4251,4.19378 6.12107,6.50821 -0.48302,1.86377 -3.51419,3.9301 -4.8398,5.27009 -4.31124,4.35559 -8.76991,8.59971 -13.24415,12.7851 -1.41551,1.32322 -4.13985,4.84221 -6.04557,5.24133 -2.49901,-1.80864 -4.70317,-4.34001 -6.72395,-6.65204 0.0863,-0.8366 -0.0348,-0.46864 0.30923,-1.12186 z"
     opacity="1"
     fill="#fc6a31"
     fill-rule="evenodd"
     id="path39"
     style="stroke-width:1.19857" />
  <path
     d="m 644.29885,203.51727 c 2.14303,-2.0915 4.33041,-4.19738 6.344,-6.41233 2.5074,0.52497 5.15024,3.27568 6.98524,4.97525 4.38436,4.06074 8.68121,8.21137 12.91095,12.43152 1.44667,1.44307 2.8454,2.94487 4.33401,4.3448 0.26848,0.2529 1.20217,0.87136 1.16741,1.2549 -1.99801,2.38035 -3.97445,4.88895 -6.14025,7.11588 -0.69877,0.71914 -1.55215,1.91651 -2.5122,2.27847 -2.03756,-0.75869 -3.82941,-3.57292 -5.30844,-5.12386 -4.42391,-4.64085 -8.53139,-9.51302 -12.64607,-14.42354 -1.28486,-1.53417 -4.85539,-4.57972 -5.13465,-6.44109 z"
     opacity="1"
     fill="#f9662f"
     fill-rule="evenodd"
     id="path40"
     style="stroke-width:1.19857" />
  <path
     d="m 654.08873,167.96422 c 10.1938,-4.22614 21.21821,-6.83782 31.78716,-9.92652 0.9972,3.90013 3.24691,8.14305 2.68958,12.37878 -10.58933,3.20976 -21.74797,4.36758 -32.55424,6.48904 -1.56293,-2.30364 -1.59529,-5.9365 -2.57212,-8.53139 0.21694,-0.13664 0.43388,-0.27327 0.64962,-0.40991 z"
     opacity="1"
     fill="#fa6a30"
     fill-rule="evenodd"
     id="path41"
     style="stroke-width:1.19857" />
  <path
     d="m 653.97367,190.2923 c 0.79585,-2.33841 1.31842,-4.98724 1.76069,-7.42032 2.674,-0.6712 6.59331,1.01878 9.28529,1.55693 7.98604,1.59649 16.70201,3.28767 24.35844,6.06355 -0.28885,4.0104 -1.3352,8.12627 -2.65482,11.91853 -0.56332,0.24091 -1.38914,-0.27567 -1.95366,-0.43628 -1.82182,-0.51897 -3.6784,-0.99481 -5.5122,-1.47663 -6.46866,-1.69597 -12.97807,-3.65203 -19.2226,-6.05156 -1.71394,-0.65801 -5.20537,-1.45865 -6.28767,-2.94967 0.15222,-0.81862 0.0755,-0.4183 0.22653,-1.20455 z"
     opacity="1"
     fill="#f96933"
     fill-rule="evenodd"
     id="path42"
     style="stroke-width:1.19857" />
  <path
     d="m 679.12437,238.99121 c 4.37716,-4.7583 8.21257,-10.16024 12.32245,-15.16904 6.4363,-7.84462 13.01163,-15.58615 19.2118,-23.62493 2.88615,-3.74072 5.91732,-7.36279 8.75073,-11.14666 1.04994,-1.40232 3.20257,-3.05274 3.64124,-4.75471 -6.08751,-6.20497 -10.80626,-14.16584 -16.20101,-20.99167 -5.14304,-6.50702 -10.18421,-13.08714 -15.45909,-19.48988 -3.07313,-3.72993 -6.50462,-7.47305 -9.15225,-11.51102 11.529,0.75749 23.55301,-1.66601 35.03407,0.0168 1.90931,4.28727 5.70997,8.08672 8.41153,11.90775 4.55215,6.43989 9.19779,12.85461 13.61211,19.37841 1.45146,-1.51379 2.46545,-3.82942 3.73353,-5.53498 4.69239,-6.31045 9.12948,-12.80188 13.86261,-19.08236 1.5917,-2.11187 2.97244,-4.74153 4.81823,-6.61968 4.06194,-0.57052 8.47027,-0.23851 12.57415,-0.28646 7.46707,-0.0887 15.00724,-0.31162 22.46711,-0.10187 -0.76708,1.79185 -2.77228,3.39074 -4.0092,4.91292 -3.05754,3.76709 -6.05515,7.57373 -9.05037,11.39116 -5.19817,6.62447 -10.56775,13.1195 -15.73117,19.76914 -4.18898,5.39475 -8.20298,11.29648 -12.84023,16.2909 10.26931,13.15186 20.79391,26.14192 30.87984,39.4364 2.81304,3.70837 5.89335,7.22136 8.82624,10.83384 0.98881,1.21654 3.05634,3.07911 3.55015,4.53177 -3.64004,-0.36796 -7.53059,0.005 -11.1958,0.0132 -7.55696,0.0192 -15.1211,0.0563 -22.66847,0.16061 -2.84779,-2.55415 -5.03278,-6.688 -7.25731,-9.81146 -3.80545,-5.3456 -7.71996,-10.6085 -11.58054,-15.91216 -1.64204,-2.2569 -3.38475,-4.45267 -5.11788,-6.64245 -0.52257,-0.66041 -1.23093,-1.78106 -2.01958,-2.01478 -3.676,6.02279 -8.22696,11.68601 -12.31167,17.45231 -3.90732,5.51699 -7.58332,11.39236 -11.85261,16.63249 -0.94567,0.40272 -2.31443,0.15701 -3.32602,0.14623 -2.38874,-0.024 -4.77748,-0.0264 -7.16622,-0.018 -8.20299,0.0252 -16.56298,0.55493 -24.74199,0.21814 -0.005,-0.12705 -0.01,-0.2529 -0.0144,-0.37995 z"
     opacity="1"
     fill="#000001"
     fill-rule="evenodd"
     id="path43"
     style="stroke-width:1.19857" />
  <path
     d="m 792.54582,178.39294 c 0.69157,-4.28607 1.12305,-8.5266 2.53137,-12.67603 3.07911,-9.07554 8.73874,-17.7136 16.24416,-23.74718 25.85425,-20.78432 69.61508,-15.13428 85.37382,15.52862 5.88016,11.4415 6.58012,24.83787 5.00521,37.38445 -1.44308,0.79465 -4.99682,0.0887 -6.64125,0.0539 -5.39475,-0.11506 -10.79309,-0.16301 -16.18903,-0.19057 -19.66366,-0.10068 -39.3525,0.28525 -59.00538,0.0767 1.24411,5.6824 2.80584,10.39876 6.76471,14.8718 7.59171,8.57454 21.28892,10.65765 31.7428,6.851 3.05035,-1.11107 5.77949,-2.76509 8.12748,-5.00401 1.46464,-1.39513 2.71954,-3.45186 4.49821,-4.4287 9.13187,-0.39912 19.06079,-1.0811 28.13633,0.024 -0.70716,5.37916 -4.5162,11.22097 -7.69839,15.47348 -12.68801,16.95371 -36.47954,22.59655 -56.52914,18.14029 -5.90533,-1.31243 -11.70999,-3.3464 -16.91775,-6.45907 -19.32927,-11.55178 -27.75159,-34.08721 -25.44315,-55.8987 z m 27.55622,-5.41752 c -0.19777,0.85578 -0.35478,1.72594 -0.52737,2.5877 1.73912,0.53456 4.13625,0.17859 5.96646,0.16661 3.79585,-0.0264 7.59291,-0.005 11.38877,-0.0132 12.6964,-0.0264 25.40239,0.19297 38.09281,0.0468 0.70715,-0.36437 0.23851,-1.02718 0.11746,-1.66841 -0.36437,-1.94407 -0.71315,-3.82582 -1.52338,-5.64764 -2.96885,-6.67721 -9.4435,-11.85741 -16.3736,-13.92493 -10.59293,-3.16062 -24.09477,-0.60887 -31.60738,7.85659 -2.77827,3.13066 -4.15662,6.75032 -5.53377,10.59652 z"
     opacity="1"
     fill="#000001"
     fill-rule="evenodd"
     id="path44"
     style="stroke-width:1.19857" />
  <path
     d="m 913.26174,132.37162 c 6.08632,-0.4207 12.25893,-0.0983 18.35843,-0.0827 2.68478,0.006 6.4351,-0.64483 8.97486,0.19776 -0.43149,4.07632 -0.44347,8.861 -0.0875,12.94091 1.07871,-0.78985 1.74631,-2.26169 2.63924,-3.27807 1.49102,-1.70197 3.20856,-3.22295 5.05915,-4.52339 9.26251,-6.51061 19.67685,-6.86059 30.58499,-6.71077 -0.46744,6.53578 -0.11266,13.22377 -0.12105,19.77873 -0.002,1.9249 0.0144,3.8462 0.0611,5.77109 0.0144,0.61367 -0.25649,1.70676 -0.0348,2.26889 -10.23814,0.49141 -20.79271,-1.54376 -29.60097,5.35159 -6.07792,4.75831 -7.81105,13.05837 -8.33123,20.33367 -0.76348,10.66723 -0.23252,21.50466 -0.26488,32.20305 -0.0228,7.39275 -0.78386,15.18703 -0.0875,22.53423 -8.71477,-0.67359 -17.93414,-0.26488 -26.67288,0.018 -0.75749,-3.94927 -0.29365,-8.3504 -0.30204,-12.3644 -0.0156,-7.59052 -0.0168,-15.17983 -0.0336,-22.77035 -0.0527,-23.88861 -0.0719,-47.78081 -0.14143,-71.66822 z"
     opacity="1"
     fill="#000001"
     fill-rule="evenodd"
     id="path45"
     style="stroke-width:1.19857" />
  <path
     d="m 0.12014,123.54128 c 0.37,-3.67729 3.58634,-5.92418 7.12928,-4.49894 4.37493,1.76113 7.88066,6.5939 11.34401,9.7038 13.15372,11.80703 26.02839,23.93445 39.04155,35.89755 3.48505,3.20393 7.01456,6.36653 10.43657,9.63662 1.97094,1.88308 4.3956,3.87366 5.36712,6.50606 0.60668,1.64434 -0.20671,3.13573 -1.16066,4.46174 -1.94923,2.70888 -4.51652,4.79764 -6.99492,7.00009 -10.38283,9.22321 -20.74499,18.65727 -30.69064,28.3621 -6.03064,5.88491 -12.50363,11.27682 -18.46502,17.24442 -2.56108,2.56522 -4.92063,6.11953 -8.86354,6.38617 -2.94866,0.19948 -5.7981,-1.63608 -6.60322,-4.56819 -0.66042,-2.40295 -0.29972,-5.2338 -0.29972,-7.70186 0.001,-4.99504 0.003,-9.99009 0.007,-14.98512 0.0155,-21.18735 0.009,-42.37469 -0.0176,-63.56202 -0.007,-6.54534 0.0341,-13.09377 -0.0465,-19.63807 -0.0424,-3.38481 -0.52193,-6.87194 -0.18397,-10.24435 z"
     opacity="1"
     fill="#000000"
     fill-rule="evenodd"
     id="path46"
     style="stroke-width:1.03353" />
  <path
     d="m 13.99216,101.83098 c 0.42685,-2.685107 3.06131,-4.510318 4.9475,-6.239405 4.20646,-3.857127 8.48114,-7.641909 12.67106,-11.518682 1.47588,-1.367359 4.98575,-4.624005 7.17993,-2.877336 2.97346,2.367814 2.01745,6.302453 2.01124,9.694489 -0.0124,6.371706 -0.0341,12.743414 -0.0517,19.115114 -0.008,2.95486 0.59738,6.5505 -0.14469,9.41958 -0.77308,2.98587 -4.57337,3.55948 -6.91431,2.18592 -2.64066,-1.54927 -4.72219,-4.007 -6.98769,-6.02961 -2.95589,-2.63757 -6.09161,-5.08083 -9.03304,-7.73596 -1.68362,-1.52032 -4.08347,-3.46646 -3.67833,-6.01411 z"
     opacity="1"
     fill="#000000"
     fill-rule="evenodd"
     id="path47"
     style="stroke-width:1.03353" />
  <path
     d="m 22.77509,253.23053 c 0.5674,-2.43913 2.72748,-4.19097 4.49275,-5.80017 3.65559,-3.32796 7.26364,-6.74893 11.01431,-9.96734 12.20701,-10.47585 24.47396,-21.36304 35.87999,-32.70706 2.8546,-2.8391 5.88801,-5.43015 8.91315,-8.08219 3.46439,-3.03547 5.57279,-5.4622 10.39006,-5.80326 2.16421,-0.15296 5.21932,-0.3328 7.23056,0.59428 7.28846,3.36311 11.67475,13.68495 20.37189,13.75937 6.62388,0.0579 11.53418,-4.5279 16.0693,-8.8067 1.95131,-1.84175 3.6804,-3.78582 6.21255,-4.85759 2.97243,-1.25781 7.35975,-1.47381 10.36525,-0.18087 2.18179,0.93845 4.06591,3.03031 5.79499,4.60954 3.31763,3.03031 6.62286,6.09679 9.97769,9.08266 13.34286,11.87524 26.92446,23.62853 39.89525,35.90891 2.57762,2.44119 5.19554,4.84105 7.7587,7.29774 1.94406,1.86243 3.60908,3.99873 2.82463,6.83577 -0.89194,3.22667 -4.23127,3.56773 -7.01973,3.58738 -6.86056,0.0496 -13.7232,-0.0424 -20.58479,-0.0155 -29.45453,0.11889 -58.91009,0.032 -88.36567,-0.004 -21.0168,-0.0259 -42.03258,-0.15193 -63.04938,-0.0847 -4.72426,0.0155 -10.21747,0.87023 -14.85904,-0.0734 -2.22932,-0.45372 -3.81993,-3.10988 -3.31246,-5.29373 z"
     opacity="1"
     fill="#000000"
     fill-rule="evenodd"
     id="path48"
     style="stroke-width:1.03353" />
  <path
     d="m 56.32859,35.175616 c 0.63356,-5.291667 6.31176,-9.248012 11.46287,-6.945304 2.70372,1.20819 4.96818,3.95221 7.0528,5.994458 3.97082,3.887104 8.01399,7.678095 12.12019,11.420495 3.21635,2.93005 6.04305,5.53971 5.29477,10.262945 -0.79994,5.047747 -6.94634,8.190709 -11.56829,5.97896 -3.05303,-1.459337 -5.3392,-4.481376 -7.69771,-6.828527 -4.09382,-4.075207 -8.40053,-7.92096 -12.50777,-11.977565 -2.31511,-2.286155 -4.57647,-4.39973 -4.15686,-7.905462 z"
     opacity="1"
     fill="#f08250"
     fill-rule="evenodd"
     id="path49"
     style="stroke-width:1.03353" />
  <path
     d="m 60.00382,89.425543 c 1.27538,-6.810956 7.29878,-7.283275 13.01213,-7.232635 4.81625,0.04135 9.63352,0.05681 14.4508,0.08989 25.31835,0.172605 50.64394,0.124027 75.96333,0.09301 1.54925,-0.0024 3.09955,-0.0096 4.64983,-0.01079 6.01515,-0.0072 15.94115,-1.143072 16.97882,7.189235 0.13953,1.121378 0.0796,2.288229 -0.11674,3.398233 -0.53951,3.065451 -2.74196,5.513881 -5.81567,6.169136 -2.57245,0.547769 -5.34335,0.335898 -7.95714,0.366905 -4.47724,0.05166 -8.95448,0.04339 -13.43174,0.06724 -25.32455,0.131255 -50.63877,0.05885 -75.96642,-0.07755 -6.90087,-0.0362 -19.7652,2.293403 -21.58731,-6.965979 -0.19844,-1.007694 -0.37208,-2.06085 -0.17984,-3.087145 z"
     opacity="1"
     fill="#f27955"
     fill-rule="evenodd"
     id="path50"
     style="stroke-width:1.03353" />
  <path
     d="m 81.08987,122.97388 c 1.95544,-5.6379 8.37159,-6.90811 12.87984,-3.35483 6.48333,5.11079 12.1233,11.60136 18.06711,17.32504 1.63816,1.57819 3.30936,3.10368 5.04052,4.57956 0.71005,0.60565 1.43662,1.38803 2.39055,1.51515 7.21507,-4.86171 13.30979,-12.12433 19.45929,-18.22731 3.07268,-3.05097 6.32622,-7.01145 10.9709,-7.32048 5.70199,-0.37931 11.52178,5.89007 8.15351,11.40809 -1.86242,3.04994 -5.03845,5.34851 -7.55406,7.83207 -5.50767,5.43637 -11.22309,10.63708 -16.75144,16.05071 -3.0365,2.97346 -6.54119,7.46725 -10.74662,8.76535 -4.86793,1.50275 -9.29867,-1.61334 -12.66486,-4.7346 -8.02122,-7.43932 -16.20057,-14.81253 -24.07192,-22.39656 -3.27008,-3.15123 -6.26938,-6.64042 -5.17282,-11.44219 z"
     opacity="1"
     fill="#f5755b"
     fill-rule="evenodd"
     id="path51"
     style="stroke-width:1.03353" />
  <path
     d="m 114.78808,29.860182 c 0.18294,-5.465303 0.1292,-10.939895 0.0785,-16.414499 -0.0258,-2.849445 -0.33693,-6.336564 0.95084,-8.961734 3.29284,-6.7138 12.21735,-5.41259 15.31587,0.751381 1.34358,2.673736 0.5271,7.088976 0.5209,10.027295 -0.0134,7.702893 0.32246,15.555642 -0.19637,23.241995 -0.42995,6.370663 -9.91981,8.530742 -14.25443,4.636411 -3.47059,-3.117122 -2.55488,-9.104364 -2.41535,-13.280849 z"
     opacity="1"
     fill="#f37a52"
     fill-rule="evenodd"
     id="path52"
     style="stroke-width:1.03353" />
  <path
     d="m 153.98362,52.22575 c 0.41857,-3.408589 2.91869,-5.781569 5.30821,-7.977808 3.90776,-3.590483 7.70495,-7.250207 11.49903,-10.962644 1.96991,-1.927533 4.20336,-4.473118 6.7107,-5.682339 5.92109,-2.857703 11.50938,3.799249 11.00606,9.28832 -0.31317,3.40238 -2.81223,5.771224 -5.21002,7.925095 -3.29593,2.962098 -6.59702,5.964493 -9.62525,9.205642 -2.57659,2.758486 -5.53042,6.237347 -9.10746,7.71012 -5.69371,2.345077 -11.23446,-4.194056 -10.58127,-9.506386 z"
     opacity="1"
     fill="#f4755b"
     fill-rule="evenodd"
     id="path53"
     style="stroke-width:1.03353" />
  <path
     d="m 169.49482,180.32335 c 0.93535,-2.54971 4.03282,-4.7315 6.06784,-6.37894 3.27319,-2.651 6.29006,-5.64927 9.46506,-8.41602 13.10411,-11.42463 25.50645,-23.67504 38.37389,-35.37045 3.81785,-3.47059 7.32461,-7.36286 11.55692,-10.34459 1.99884,-1.4087 4.62194,-2.23656 6.86262,-0.67696 2.85564,1.98747 2.55489,5.40018 2.52802,8.4336 -0.0568,6.71896 -0.0123,13.43896 -0.0197,20.15794 -0.0237,21.70513 0.0228,43.41027 -0.0413,65.11437 -0.0176,6.20116 -0.0237,12.40337 -0.0134,18.60558 0.005,2.80293 0.5736,6.11849 -0.5085,8.76638 -1.30742,3.20084 -5.62136,4.75734 -8.81186,3.4644 -3.12126,-1.26607 -5.71024,-4.5744 -8.10597,-6.83783 -14.2937,-13.50305 -29.18168,-26.37358 -43.52292,-39.81462 -3.77962,-3.54191 -7.98711,-6.67349 -11.60136,-10.38387 -1.66295,-1.70739 -3.15124,-3.80649 -2.22932,-6.31899 z"
     opacity="1"
     fill="#000000"
     fill-rule="evenodd"
     id="path54"
     style="stroke-width:1.03353" />
  <path
     d="m 203.10001,83.711166 c 1.03249,-3.550175 4.68291,-3.716571 7.36698,-1.921336 2.25826,1.509989 4.14549,3.74137 6.08129,5.629626 3.28352,3.203945 6.61665,6.359313 10.00455,9.453686 1.74356,1.592677 4.45141,4.052468 3.60289,6.699338 -0.90434,2.81947 -4.40284,4.61781 -6.49263,6.45748 -4.52169,3.98322 -8.6434,8.87802 -13.7449,12.1574 -2.18591,1.40456 -4.52168,1.23197 -6.27972,-0.73793 -1.71772,-1.92547 -0.76378,-6.95359 -0.76171,-9.36688 0.004,-6.37481 -0.0568,-12.748574 -0.0702,-19.123372 -0.005,-2.915583 -0.5302,-6.416149 0.29352,-9.248012 z"
     opacity="1"
     fill="#000000"
     fill-rule="evenodd"
     id="path55"
     style="stroke-width:1.03353" />
  <g
     id="g2"
     transform="matrix(0.38912885,0,0,0.38912885,103.11517,74.223591)">
    <path
       d="m 484.2292,6.8334646 c 0.0875,-0.22653 0.17499,-0.45425 0.26249,-0.68198 8.87537,-1.20336 18.11152,0.14023 27.04083,-0.26848 0.45665,1.10867 0.16181,2.68359 0.15581,3.87376 -0.0156,2.7519104 -0.29724,5.8741704 0.20256,8.5721404 2.0076,-1.45745 3.43749,-3.9241 5.41992,-5.54456 4.0931,-3.3440004 9.07673,-5.6572304 14.1179,-7.1602304 5.57573,-1.66241 11.65245,-2.0915 17.44152,-1.6756 4.41792,0.31762 8.81665,1.09549 12.97088,2.67281 3.2589,1.23692 6.32363,2.95326 9.14985,4.9884304 2.70157,1.94647 5.20777,4.1698 7.24892,6.81264 9.2793,12.02042 7.25972,28.6577 7.22975,42.88587 -0.036,17.32527 -0.11506,34.65533 -0.0479,51.978185 -8.73634,-0.51058 -18.0468,-0.61846 -26.77595,-0.0491 -0.66041,-5.85739 -0.14263,-12.00004 -0.13065,-17.889785 0.0216,-10.54498 -0.024,-21.09115 -0.03,-31.63613 -0.005,-7.96687 1.01279,-17.0484 -2.57571,-24.44355 -6.08512,-12.54059 -25.45394,-13.41674 -35.595,-5.511 -3.16781,2.47024 -5.28208,6.25891 -6.74673,9.9385 -2.52298,6.33682 -2.03276,13.48626 -2.03157,20.17666 0.001,10.53059 -0.005,21.06119 -0.0156,31.59059 -0.005,4.46945 0.0108,8.938895 0.004,13.408345 -10e-4,0.68438 0.53816,4.02598 -0.0827,4.44907 -8.91852,0 -18.16426,-0.94207 -27.04682,-0.0611 -1.01759,-2.7639 -0.27927,-7.05716 -0.27927,-9.99244 0.002,-7.391555 0.002,-14.783105 0.002,-22.174655 0,-15.98048 0.024,-31.96095 0.0204,-47.94143 -0.002,-8.73754 -0.40751,-17.59254 0.0911,-26.3169004 z"
       opacity="1"
       fill="#000001"
       fill-rule="evenodd"
       id="path1"
       style="stroke-width:1.19857" />
    <path
       d="m 558.61227,5.959012 c 0.0875,-0.22653 -0.40989,1.1054338 -0.32239,0.8777038 8.87537,-1.20336 9.04586,17.9791132 17.97517,17.5704032 0.45665,1.10867 2.20889,-2.092942 2.20289,-0.902772 -0.0156,2.751911 4.57677,-3.873852 7.31862,-6.439815 1.22776,-2.042331 3.92489,-3.534179 5.90732,-5.154639 4.0931,-3.344001 9.07673,-5.657231 14.1179,-7.160231 5.57573,-1.66241 11.65245,-2.0915 17.44152,-1.6756 4.41792,0.31762 8.81665,1.09549 12.97088,2.67281 3.2589,1.23692 6.32363,2.95326 9.14985,4.98843 2.70157,1.946471 5.20777,4.169801 7.24892,6.812641 9.2793,12.02042 7.25972,28.6577 7.22975,42.88587 -0.036,17.32527 -0.11506,34.65533 -0.0479,51.978187 -8.73634,-0.51058 -18.0468,-0.61846 -26.77595,-0.0491 -0.66041,-5.85739 -0.14263,-12.00004 -0.13065,-17.889787 0.0216,-10.54498 -0.024,-21.09115 -0.03,-31.63613 -0.005,-7.96687 1.01279,-17.0484 -2.57571,-24.44355 -6.08512,-12.54059 -25.45394,-13.41674 -35.595,-5.511 -3.16781,2.47024 -5.28208,6.25891 -6.74673,9.9385 -2.52298,6.33682 -2.03276,13.48626 -2.03157,20.17666 0.001,10.53059 -0.005,21.06119 -0.0156,31.59059 -0.005,4.46945 0.0108,8.938897 0.004,13.408347 -10e-4,0.68438 0.53816,4.02598 -0.0827,4.44907 -8.91852,0 -18.16426,-0.94207 -27.04682,-0.0611 -1.01759,-2.7639 -0.27927,-7.05716 -0.27927,-9.99244 0.002,-7.391557 0.002,-14.783107 0.002,-22.174657 0,-15.98048 0.024,-31.96095 0.0204,-47.94143 -0.002,-8.73754 -0.40751,-17.59254 0.0911,-26.316901 z"
       opacity="1"
       fill="#000001"
       fill-rule="evenodd"
       id="path2"
       style="stroke-width:1.19857" />
  </g>
  <path
     d="m 364.04402,117.75815 c 1.47851,-1.85159 2.77401,-3.95364 4.16224,-5.90271 2.17402,-3.05257 4.39503,-6.06502 6.4893,-9.19314 0.97486,-1.45562 1.99873,-2.865075 2.95578,-4.337488 0.35465,-0.545683 1.08176,-1.187909 1.22993,-1.850194 -2.05622,-2.414533 -3.6501,-5.512338 -5.47233,-8.168465 -1.73719,-2.532069 -3.43998,-5.092584 -5.22171,-7.584074 -1.03803,-1.451424 -2.1971,-2.90798 -3.09141,-4.47927 3.89423,0.294761 7.95565,-0.648293 11.83368,0.0065 0.64492,1.6683 1.92869,3.146776 2.84123,4.633649 1.5376,2.505947 3.10679,5.0021 4.59784,7.540698 0.49027,-0.589059 0.83278,-1.490137 1.2611,-2.15382 1.58498,-2.455578 3.08373,-4.981581 4.68246,-7.425497 0.53764,-0.821789 1.00402,-1.845066 1.62749,-2.575908 1.37203,-0.222006 2.86106,-0.09281 4.24725,-0.11147 2.5222,-0.03452 5.0691,-0.12126 7.58885,-0.03964 -0.25909,0.697261 -0.93639,1.319435 -1.3542,1.911759 -1.03277,1.465884 -2.04528,2.947157 -3.057,4.432629 -1.75583,2.577773 -3.56955,5.105176 -5.31362,7.692743 -1.41495,2.099253 -2.77077,4.395786 -4.33713,6.339259 -5.97833,8.688489 -1.62504,2.227644 -5.60148,8.014089 -1.24164,2.34365 -2.77886,4.54737 -4.15858,6.7912 -1.31979,2.14682 -2.56146,4.4331 -4.00354,6.47218 -0.31941,0.15671 -0.78176,0.0611 -1.12345,0.0569 -0.80685,-0.009 -1.61372,-0.0103 -2.42057,-0.007 -2.77079,0.01 -5.59459,0.21594 -8.35727,0.0849 -0.002,-0.0494 -0.003,-0.0984 -0.006,-0.14785 z"
     opacity="1"
     fill="#000001"
     fill-rule="evenodd"
     id="path3"
     style="stroke-width:0.434535" />
</svg>
